# xmcd
#
# Track frame offsets: 
#        150
#        17569
#        43137
#        57948
#        75189
#        100087
#        118200
#        143867
#        160608
#        180589
#
# Disc length: 2679 seconds
#
# Revision: 0
# Processed by: cddbd v1.5.2PL0 Copyright (c) Steve Scherf et al.
# Submitted via: ExactAudioCopy v1.0b3
#
DISCID=750a750a
DTITLE=Shelly Waters - Drive
DYEAR=2014
DGENRE=Blues
TTITLE0=Little Old House
TTITLE1=Drive
TTITLE2=Dance In The Rain
TTITLE3=Reaching For You
TTITLE4=Revolve
TTITLE5=She Waits
TTITLE6=Promises
TTITLE7=One And Only
TTITLE8=State Line
TTITLE9=Need To Rest
EXTD=
EXTT0=
EXTT1=
EXTT2=
EXTT3=
EXTT4=
EXTT5=
EXTT6=
EXTT7=
EXTT8=
EXTT9=
PLAYORDER=
